<?xml version="1.0" encoding="UTF-8" standalone="no"?>
<!DOCTYPE svg PUBLIC "-//W3C//DTD SVG 1.1//EN"
 "http://www.w3.org/Graphics/SVG/1.1/DTD/svg11.dtd">
<!-- Generated by graphviz version 2.40.1 (20161225.0304)
 -->
<!-- Title: %0 Pages: 1 -->
<svg width="371pt" height="890pt"
 viewBox="0.00 0.00 370.91 890.00" xmlns="http://www.w3.org/2000/svg" xmlns:xlink="http://www.w3.org/1999/xlink">
<g id="graph0" class="graph" transform="scale(1 1) rotate(0) translate(4 886)">
<title>%0</title>
<g id="a_graph0"><a xlink:title="Data Model">
<polygon fill="#ffffff" stroke="transparent" points="-4,4 -4,-886 366.9073,-886 366.9073,4 -4,4"/>
</a>
</g>
<!-- AllstarFull -->
<g id="AllstarFull" class="node">
<title>AllstarFull</title>
<polygon fill="#e66101" stroke="transparent" points="16.9073,-621 16.9073,-641 80.9073,-641 80.9073,-621 16.9073,-621"/>
<text text-anchor="start" x="18.5763" y="-626.4" font-family="Times,serif" font-size="14.00" fill="#ffffff">AllstarFull</text>
<polygon fill="#fadfcc" stroke="transparent" points="16.9073,-601 16.9073,-621 80.9073,-621 80.9073,-601 16.9073,-601"/>
<text text-anchor="start" x="18.9073" y="-606.4" font-family="Times,serif" font-size="14.00" fill="#444444">playerID</text>
<polygon fill="none" stroke="#994000" stroke-opacity="0.666667" points="15.9073,-600 15.9073,-642 81.9073,-642 81.9073,-600 15.9073,-600"/>
</g>
<!-- People -->
<g id="People" class="node">
<title>People</title>
<polygon fill="#2166ac" stroke="transparent" points="151.4073,-501 151.4073,-521 204.4073,-521 204.4073,-501 151.4073,-501"/>
<text text-anchor="start" x="158.8561" y="-506.4" font-family="Times,serif" font-size="14.00" fill="#ffffff">People</text>
<polygon fill="#d2e0ee" stroke="transparent" points="151.4073,-481 151.4073,-501 204.4073,-501 204.4073,-481 151.4073,-481"/>
<text text-anchor="start" x="153.0335" y="-487.4" font-family="Times,serif" text-decoration="underline" font-size="14.00" fill="#444444">playerID</text>
<polygon fill="none" stroke="#164472" stroke-opacity="0.666667" points="149.9073,-480 149.9073,-522 204.9073,-522 204.9073,-480 149.9073,-480"/>
</g>
<!-- AllstarFull&#45;&gt;People -->
<g id="AllstarFull_1" class="edge">
<title>AllstarFull:playerID&#45;&gt;People:playerID</title>
<path fill="none" stroke="#555555" d="M80.9073,-611C139.0185,-611 95.5727,-505.0913 141.386,-492.2665"/>
<polygon fill="#555555" stroke="#555555" points="141.925,-495.7263 151.4073,-491 141.0473,-488.7815 141.925,-495.7263"/>
</g>
<!-- Appearances -->
<g id="Appearances" class="node">
<title>Appearances</title>
<polygon fill="#4dac26" stroke="transparent" points="10.9073,-561 10.9073,-581 86.9073,-581 86.9073,-561 10.9073,-561"/>
<text text-anchor="start" x="12.7649" y="-566.4" font-family="Times,serif" font-size="14.00" fill="#ffffff">Appearances</text>
<polygon fill="#dbeed3" stroke="transparent" points="10.9073,-541 10.9073,-561 86.9073,-561 86.9073,-541 10.9073,-541"/>
<text text-anchor="start" x="12.9073" y="-546.4" font-family="Times,serif" font-size="14.00" fill="#444444">playerID</text>
<polygon fill="none" stroke="#337219" stroke-opacity="0.666667" points="9.9073,-540 9.9073,-582 87.9073,-582 87.9073,-540 9.9073,-540"/>
</g>
<!-- Appearances&#45;&gt;People -->
<g id="Appearances_1" class="edge">
<title>Appearances:playerID&#45;&gt;People:playerID</title>
<path fill="none" stroke="#555555" d="M86.9073,-551C122.2359,-551 114.4462,-502.1465 141.3534,-492.6049"/>
<polygon fill="#555555" stroke="#555555" points="142.084,-496.0326 151.4073,-491 140.9805,-489.1201 142.084,-496.0326"/>
</g>
<!-- AwardsPlayers -->
<g id="AwardsPlayers" class="node">
<title>AwardsPlayers</title>
<polygon fill="#e66101" stroke="transparent" points="4.9073,-501 4.9073,-521 92.9073,-521 92.9073,-501 4.9073,-501"/>
<text text-anchor="start" x="6.537" y="-506.4" font-family="Times,serif" font-size="14.00" fill="#ffffff">AwardsPlayers</text>
<polygon fill="#fadfcc" stroke="transparent" points="4.9073,-481 4.9073,-501 92.9073,-501 92.9073,-481 4.9073,-481"/>
<text text-anchor="start" x="6.9073" y="-486.4" font-family="Times,serif" font-size="14.00" fill="#444444">playerID</text>
<polygon fill="none" stroke="#994000" stroke-opacity="0.666667" points="3.9073,-480 3.9073,-522 93.9073,-522 93.9073,-480 3.9073,-480"/>
</g>
<!-- AwardsPlayers&#45;&gt;People -->
<g id="AwardsPlayers_1" class="edge">
<title>AwardsPlayers:playerID&#45;&gt;People:playerID</title>
<path fill="none" stroke="#555555" d="M92.9073,-491C115.0479,-491 123.0479,-491 140.9905,-491"/>
<polygon fill="#555555" stroke="#555555" points="141.4073,-494.5001 151.4073,-491 141.4072,-487.5001 141.4073,-494.5001"/>
</g>
<!-- Batting -->
<g id="Batting" class="node">
<title>Batting</title>
<polygon fill="#4dac26" stroke="transparent" points="22.9073,-361 22.9073,-381 75.9073,-381 75.9073,-361 22.9073,-361"/>
<text text-anchor="start" x="28.7958" y="-366.4" font-family="Times,serif" font-size="14.00" fill="#ffffff">Batting</text>
<polygon fill="#dbeed3" stroke="transparent" points="22.9073,-341 22.9073,-361 75.9073,-361 75.9073,-341 22.9073,-341"/>
<text text-anchor="start" x="24.5335" y="-346.4" font-family="Times,serif" font-size="14.00" fill="#444444">playerID</text>
<polygon fill="#dbeed3" stroke="transparent" points="22.9073,-321 22.9073,-341 75.9073,-341 75.9073,-321 22.9073,-321"/>
<text text-anchor="start" x="24.9073" y="-326.4" font-family="Times,serif" font-size="14.00" fill="#444444">teamID</text>
<polygon fill="none" stroke="#337219" stroke-opacity="0.666667" points="21.4073,-320 21.4073,-382 76.4073,-382 76.4073,-320 21.4073,-320"/>
</g>
<!-- Batting&#45;&gt;People -->
<g id="Batting_1" class="edge">
<title>Batting:playerID&#45;&gt;People:playerID</title>
<path fill="none" stroke="#555555" d="M75.9073,-351C142.8728,-351 87.2829,-476.6237 141.3227,-489.8731"/>
<polygon fill="#555555" stroke="#555555" points="141.0804,-493.3677 151.4073,-491 141.8578,-486.411 141.0804,-493.3677"/>
</g>
<!-- Teams -->
<g id="Teams" class="node">
<title>Teams</title>
<polygon fill="#2166ac" stroke="transparent" points="132.4073,-181 132.4073,-201 223.4073,-201 223.4073,-181 132.4073,-181"/>
<text text-anchor="start" x="159.2488" y="-186.4" font-family="Times,serif" font-size="14.00" fill="#ffffff">Teams</text>
<polygon fill="#d2e0ee" stroke="transparent" points="132.4073,-161 132.4073,-181 223.4073,-181 223.4073,-161 132.4073,-161"/>
<text text-anchor="start" x="134.4073" y="-167.4" font-family="Times,serif" font-style="italic" font-size="14.00" fill="#444444">teamID</text>
<polygon fill="#d2e0ee" stroke="transparent" points="132.4073,-141 132.4073,-161 223.4073,-161 223.4073,-141 132.4073,-141"/>
<text text-anchor="start" x="134.4073" y="-146.4" font-family="Times,serif" font-size="14.00" fill="#444444">franchID</text>
<polygon fill="#d2e0ee" stroke="transparent" points="132.4073,-121 132.4073,-141 223.4073,-141 223.4073,-121 132.4073,-121"/>
<text text-anchor="start" x="133.99" y="-127.4" font-family="Times,serif" text-decoration="underline" font-size="14.00" fill="#444444">yearID, teamID</text>
<polygon fill="none" stroke="#164472" stroke-opacity="0.666667" points="130.9073,-120 130.9073,-202 223.9073,-202 223.9073,-120 130.9073,-120"/>
</g>
<!-- Batting&#45;&gt;Teams -->
<g id="Batting_2" class="edge">
<title>Batting:teamID&#45;&gt;Teams:teamID</title>
<path fill="none" stroke="#555555" stroke-dasharray="5,2" d="M75.9073,-331C147.4922,-331 66.1353,-186.8374 122.187,-172.1959"/>
<polygon fill="#555555" stroke="#555555" points="122.8818,-175.6386 132.4073,-171 122.0682,-168.686 122.8818,-175.6386"/>
</g>
<!-- BattingPost -->
<g id="BattingPost" class="node">
<title>BattingPost</title>
<polygon fill="#7b3294" stroke="transparent" points="14.9073,-861 14.9073,-881 83.9073,-881 83.9073,-861 14.9073,-861"/>
<text text-anchor="start" x="16.7369" y="-866.4" font-family="Times,serif" font-size="14.00" fill="#ffffff">BattingPost</text>
<polygon fill="#e4d6e9" stroke="transparent" points="14.9073,-841 14.9073,-861 83.9073,-861 83.9073,-841 14.9073,-841"/>
<text text-anchor="start" x="16.9073" y="-846.4" font-family="Times,serif" font-size="14.00" fill="#444444">playerID</text>
<polygon fill="none" stroke="#522162" stroke-opacity="0.666667" points="13.4073,-840 13.4073,-882 84.4073,-882 84.4073,-840 13.4073,-840"/>
</g>
<!-- BattingPost&#45;&gt;People -->
<g id="BattingPost_1" class="edge">
<title>BattingPost:playerID&#45;&gt;People:playerID</title>
<path fill="none" stroke="#555555" d="M83.9073,-851C243.0391,-851 0,-506.9903 141.0656,-491.5367"/>
<polygon fill="#555555" stroke="#555555" points="141.6021,-495.0137 151.4073,-491 141.2393,-488.0231 141.6021,-495.0137"/>
</g>
<!-- CollegePlaying -->
<g id="CollegePlaying" class="node">
<title>CollegePlaying</title>
<polygon fill="#8c510a" stroke="transparent" points="3.9073,-441 3.9073,-461 93.9073,-461 93.9073,-441 3.9073,-441"/>
<text text-anchor="start" x="5.7446" y="-446.4" font-family="Times,serif" font-size="14.00" fill="#ffffff">CollegePlaying</text>
<polygon fill="#e8dcce" stroke="transparent" points="3.9073,-421 3.9073,-441 93.9073,-441 93.9073,-421 3.9073,-421"/>
<text text-anchor="start" x="5.9073" y="-426.4" font-family="Times,serif" font-size="14.00" fill="#444444">playerID</text>
<polygon fill="#e8dcce" stroke="transparent" points="3.9073,-401 3.9073,-421 93.9073,-421 93.9073,-401 3.9073,-401"/>
<text text-anchor="start" x="5.9073" y="-406.4" font-family="Times,serif" font-size="14.00" fill="#444444">schoolID</text>
<polygon fill="none" stroke="#5d3606" stroke-opacity="0.666667" points="2.9073,-400 2.9073,-462 94.9073,-462 94.9073,-400 2.9073,-400"/>
</g>
<!-- CollegePlaying&#45;&gt;People -->
<g id="CollegePlaying_1" class="edge">
<title>CollegePlaying:playerID&#45;&gt;People:playerID</title>
<path fill="none" stroke="#555555" d="M93.9073,-431C126.9468,-431 117.3323,-479.0112 141.3745,-489.1385"/>
<polygon fill="#555555" stroke="#555555" points="140.9365,-492.6169 151.4073,-491 142.2136,-485.7344 140.9365,-492.6169"/>
</g>
<!-- Schools -->
<g id="Schools" class="node">
<title>Schools</title>
<polygon fill="#8c510a" stroke="transparent" points="150.4073,-421 150.4073,-441 205.4073,-441 205.4073,-421 150.4073,-421"/>
<text text-anchor="start" x="155.7411" y="-426.4" font-family="Times,serif" font-size="14.00" fill="#ffffff">Schools</text>
<polygon fill="#e8dcce" stroke="transparent" points="150.4073,-401 150.4073,-421 205.4073,-421 205.4073,-401 150.4073,-401"/>
<text text-anchor="start" x="152.2488" y="-407.4" font-family="Times,serif" text-decoration="underline" font-size="14.00" fill="#444444">schoolID</text>
<polygon fill="none" stroke="#5d3606" stroke-opacity="0.666667" points="148.9073,-400 148.9073,-442 205.9073,-442 205.9073,-400 148.9073,-400"/>
</g>
<!-- CollegePlaying&#45;&gt;Schools -->
<g id="CollegePlaying_2" class="edge">
<title>CollegePlaying:schoolID&#45;&gt;Schools:schoolID</title>
<path fill="none" stroke="#555555" d="M93.9073,-411C115.2909,-411 123.0175,-411 140.3467,-411"/>
<polygon fill="#555555" stroke="#555555" points="140.4073,-414.5001 150.4073,-411 140.4072,-407.5001 140.4073,-414.5001"/>
</g>
<!-- Fielding -->
<g id="Fielding" class="node">
<title>Fielding</title>
<polygon fill="#4dac26" stroke="transparent" points="22.9073,-281 22.9073,-301 75.9073,-301 75.9073,-281 22.9073,-281"/>
<text text-anchor="start" x="26.0728" y="-286.4" font-family="Times,serif" font-size="14.00" fill="#ffffff">Fielding</text>
<polygon fill="#dbeed3" stroke="transparent" points="22.9073,-261 22.9073,-281 75.9073,-281 75.9073,-261 22.9073,-261"/>
<text text-anchor="start" x="24.5335" y="-266.4" font-family="Times,serif" font-size="14.00" fill="#444444">playerID</text>
<polygon fill="#dbeed3" stroke="transparent" points="22.9073,-241 22.9073,-261 75.9073,-261 75.9073,-241 22.9073,-241"/>
<text text-anchor="start" x="24.9073" y="-246.4" font-family="Times,serif" font-size="14.00" fill="#444444">teamID</text>
<polygon fill="none" stroke="#337219" stroke-opacity="0.666667" points="21.4073,-240 21.4073,-302 76.4073,-302 76.4073,-240 21.4073,-240"/>
</g>
<!-- Fielding&#45;&gt;People -->
<g id="Fielding_1" class="edge">
<title>Fielding:playerID&#45;&gt;People:playerID</title>
<path fill="none" stroke="#555555" d="M75.9073,-271C175.6483,-271 56.9705,-475.8032 141.354,-490.2034"/>
<polygon fill="#555555" stroke="#555555" points="141.162,-493.6991 151.4073,-491 141.715,-486.7209 141.162,-493.6991"/>
</g>
<!-- Fielding&#45;&gt;Teams -->
<g id="Fielding_2" class="edge">
<title>Fielding:teamID&#45;&gt;Teams:teamID</title>
<path fill="none" stroke="#555555" stroke-dasharray="5,2" d="M75.9073,-251C115.5254,-251 93.7712,-184.7292 122.3615,-172.8212"/>
<polygon fill="#555555" stroke="#555555" points="123.192,-176.2278 132.4073,-171 121.9433,-169.3401 123.192,-176.2278"/>
</g>
<!-- FieldingPost -->
<g id="FieldingPost" class="node">
<title>FieldingPost</title>
<polygon fill="#7b3294" stroke="transparent" points="11.9073,-801 11.9073,-821 85.9073,-821 85.9073,-801 11.9073,-801"/>
<text text-anchor="start" x="13.5139" y="-806.4" font-family="Times,serif" font-size="14.00" fill="#ffffff">FieldingPost</text>
<polygon fill="#e4d6e9" stroke="transparent" points="11.9073,-781 11.9073,-801 85.9073,-801 85.9073,-781 11.9073,-781"/>
<text text-anchor="start" x="13.9073" y="-786.4" font-family="Times,serif" font-size="14.00" fill="#444444">playerID</text>
<polygon fill="none" stroke="#522162" stroke-opacity="0.666667" points="10.9073,-780 10.9073,-822 86.9073,-822 86.9073,-780 10.9073,-780"/>
</g>
<!-- FieldingPost&#45;&gt;People -->
<g id="FieldingPost_1" class="edge">
<title>FieldingPost:playerID&#45;&gt;People:playerID</title>
<path fill="none" stroke="#555555" d="M85.9073,-791C218.7831,-791 25.6335,-506.6117 141.3166,-491.6147"/>
<polygon fill="#555555" stroke="#555555" points="141.6386,-495.1017 151.4073,-491 141.2129,-488.1146 141.6386,-495.1017"/>
</g>
<!-- HallOfFame -->
<g id="HallOfFame" class="node">
<title>HallOfFame</title>
<polygon fill="#e66101" stroke="transparent" points="12.9073,-741 12.9073,-761 85.9073,-761 85.9073,-741 12.9073,-741"/>
<text text-anchor="start" x="14.4213" y="-746.4" font-family="Times,serif" font-size="14.00" fill="#ffffff">HallOfFame</text>
<polygon fill="#fadfcc" stroke="transparent" points="12.9073,-721 12.9073,-741 85.9073,-741 85.9073,-721 12.9073,-721"/>
<text text-anchor="start" x="14.9073" y="-726.4" font-family="Times,serif" font-size="14.00" fill="#444444">playerID</text>
<polygon fill="none" stroke="#994000" stroke-opacity="0.666667" points="11.4073,-720 11.4073,-762 86.4073,-762 86.4073,-720 11.4073,-720"/>
</g>
<!-- HallOfFame&#45;&gt;People -->
<g id="HallOfFame_1" class="edge">
<title>HallOfFame:playerID&#45;&gt;People:playerID</title>
<path fill="none" stroke="#555555" d="M85.9073,-731C192.8038,-731 50.8812,-506.6729 141.2546,-491.7762"/>
<polygon fill="#555555" stroke="#555555" points="141.7032,-495.2522 151.4073,-491 141.1695,-488.2726 141.7032,-495.2522"/>
</g>
<!-- HomeGames -->
<g id="HomeGames" class="node">
<title>HomeGames</title>
<polygon fill="#808080" stroke="transparent" points="158.4073,-613 158.4073,-633 235.4073,-633 235.4073,-613 158.4073,-613"/>
<text text-anchor="start" x="160.3659" y="-618.4" font-family="Times,serif" font-size="14.00" fill="#ffffff">HomeGames</text>
<polygon fill="#e5e5e5" stroke="transparent" points="158.4073,-593 158.4073,-613 235.4073,-613 235.4073,-593 158.4073,-593"/>
<text text-anchor="start" x="160.4073" y="-598.4" font-family="Times,serif" font-size="14.00" fill="#444444">park.key</text>
<polygon fill="none" stroke="#555555" stroke-opacity="0.666667" points="156.9073,-592 156.9073,-634 235.9073,-634 235.9073,-592 156.9073,-592"/>
</g>
<!-- Parks -->
<g id="Parks" class="node">
<title>Parks</title>
<polygon fill="#808080" stroke="transparent" points="272.9073,-613 272.9073,-633 324.9073,-633 324.9073,-613 272.9073,-613"/>
<text text-anchor="start" x="283.3561" y="-618.4" font-family="Times,serif" font-size="14.00" fill="#ffffff">Parks</text>
<polygon fill="#e5e5e5" stroke="transparent" points="272.9073,-593 272.9073,-613 324.9073,-613 324.9073,-593 272.9073,-593"/>
<text text-anchor="start" x="274.6124" y="-599.4" font-family="Times,serif" text-decoration="underline" font-size="14.00" fill="#444444">park.key</text>
<polygon fill="none" stroke="#555555" stroke-opacity="0.666667" points="271.9073,-592 271.9073,-634 325.9073,-634 325.9073,-592 271.9073,-592"/>
</g>
<!-- HomeGames&#45;&gt;Parks -->
<g id="HomeGames_1" class="edge">
<title>HomeGames:park.key&#45;&gt;Parks:park.key</title>
<path fill="none" stroke="#555555" d="M235.4073,-603C248.0375,-603 253.4892,-603 262.6423,-603"/>
<polygon fill="#555555" stroke="#555555" points="262.9073,-606.5001 272.9073,-603 262.9072,-599.5001 262.9073,-606.5001"/>
</g>
<!-- Managers -->
<g id="Managers" class="node">
<title>Managers</title>
<polygon fill="#5aae61" stroke="transparent" points="19.9073,-201 19.9073,-221 78.9073,-221 78.9073,-201 19.9073,-201"/>
<text text-anchor="start" x="21.8105" y="-206.4" font-family="Times,serif" font-size="14.00" fill="#ffffff">Managers</text>
<polygon fill="#deeedf" stroke="transparent" points="19.9073,-181 19.9073,-201 78.9073,-201 78.9073,-181 19.9073,-181"/>
<text text-anchor="start" x="21.9073" y="-186.4" font-family="Times,serif" font-size="14.00" fill="#444444">playerID</text>
<polygon fill="#deeedf" stroke="transparent" points="19.9073,-161 19.9073,-181 78.9073,-181 78.9073,-161 19.9073,-161"/>
<text text-anchor="start" x="21.9073" y="-166.4" font-family="Times,serif" font-size="14.00" fill="#444444">teamID</text>
<polygon fill="none" stroke="#3c7440" stroke-opacity="0.666667" points="18.4073,-160 18.4073,-222 79.4073,-222 79.4073,-160 18.4073,-160"/>
</g>
<!-- Managers&#45;&gt;People -->
<g id="Managers_1" class="edge">
<title>Managers:playerID&#45;&gt;People:playerID</title>
<path fill="none" stroke="#555555" d="M78.9073,-191C212.462,-191 24.644,-475.3883 141.2514,-490.3853"/>
<polygon fill="#555555" stroke="#555555" points="141.214,-493.8893 151.4073,-491 141.637,-486.9021 141.214,-493.8893"/>
</g>
<!-- Managers&#45;&gt;Teams -->
<g id="Managers_2" class="edge">
<title>Managers:teamID&#45;&gt;Teams:teamID</title>
<path fill="none" stroke="#555555" stroke-dasharray="5,2" d="M78.9073,-171C98.784,-171 106.1989,-171 121.9867,-171"/>
<polygon fill="#555555" stroke="#555555" points="122.4073,-174.5001 132.4073,-171 122.4072,-167.5001 122.4073,-174.5001"/>
</g>
<!-- Pitching -->
<g id="Pitching" class="node">
<title>Pitching</title>
<polygon fill="#4dac26" stroke="transparent" points="22.9073,-121 22.9073,-141 75.9073,-141 75.9073,-121 22.9073,-121"/>
<text text-anchor="start" x="26.0728" y="-126.4" font-family="Times,serif" font-size="14.00" fill="#ffffff">Pitching</text>
<polygon fill="#dbeed3" stroke="transparent" points="22.9073,-101 22.9073,-121 75.9073,-121 75.9073,-101 22.9073,-101"/>
<text text-anchor="start" x="24.5335" y="-106.4" font-family="Times,serif" font-size="14.00" fill="#444444">playerID</text>
<polygon fill="#dbeed3" stroke="transparent" points="22.9073,-81 22.9073,-101 75.9073,-101 75.9073,-81 22.9073,-81"/>
<text text-anchor="start" x="24.9073" y="-86.4" font-family="Times,serif" font-size="14.00" fill="#444444">teamID</text>
<polygon fill="none" stroke="#337219" stroke-opacity="0.666667" points="21.4073,-80 21.4073,-142 76.4073,-142 76.4073,-80 21.4073,-80"/>
</g>
<!-- Pitching&#45;&gt;People -->
<g id="Pitching_1" class="edge">
<title>Pitching:playerID&#45;&gt;People:playerID</title>
<path fill="none" stroke="#555555" d="M75.9073,-111C95.5887,-111 89.441,-132.0929 94.9073,-151 132.2047,-280.0065 59.1817,-337.4693 130.9073,-451 141.9513,-468.4811 167.2787,-460.4593 175.6588,-471.3658"/>
<polygon fill="#555555" stroke="#555555" points="172.2981,-472.3439 178.4073,-481 179.0295,-470.4235 172.2981,-472.3439"/>
</g>
<!-- Pitching&#45;&gt;Teams -->
<g id="Pitching_2" class="edge">
<title>Pitching:teamID&#45;&gt;Teams:teamID</title>
<path fill="none" stroke="#555555" stroke-dasharray="5,2" d="M75.9073,-91C115.5254,-91 93.7712,-157.2708 122.3615,-169.1788"/>
<polygon fill="#555555" stroke="#555555" points="121.9433,-172.6599 132.4073,-171 123.192,-165.7722 121.9433,-172.6599"/>
</g>
<!-- PitchingPost -->
<g id="PitchingPost" class="node">
<title>PitchingPost</title>
<polygon fill="#7b3294" stroke="transparent" points="11.9073,-681 11.9073,-701 85.9073,-701 85.9073,-681 11.9073,-681"/>
<text text-anchor="start" x="13.5139" y="-686.4" font-family="Times,serif" font-size="14.00" fill="#ffffff">PitchingPost</text>
<polygon fill="#e4d6e9" stroke="transparent" points="11.9073,-661 11.9073,-681 85.9073,-681 85.9073,-661 11.9073,-661"/>
<text text-anchor="start" x="13.9073" y="-666.4" font-family="Times,serif" font-size="14.00" fill="#444444">playerID</text>
<polygon fill="none" stroke="#522162" stroke-opacity="0.666667" points="10.9073,-660 10.9073,-702 86.9073,-702 86.9073,-660 10.9073,-660"/>
</g>
<!-- PitchingPost&#45;&gt;People -->
<g id="PitchingPost_1" class="edge">
<title>PitchingPost:playerID&#45;&gt;People:playerID</title>
<path fill="none" stroke="#555555" d="M85.9073,-671C167.215,-671 75.3044,-506.8086 141.0496,-492.0571"/>
<polygon fill="#555555" stroke="#555555" points="141.8143,-495.4973 151.4073,-491 141.1035,-488.5335 141.8143,-495.4973"/>
</g>
<!-- Salaries -->
<g id="Salaries" class="node">
<title>Salaries</title>
<polygon fill="#d01c8b" stroke="transparent" points="22.9073,-41 22.9073,-61 75.9073,-61 75.9073,-41 22.9073,-41"/>
<text text-anchor="start" x="27.2509" y="-46.4" font-family="Times,serif" font-size="14.00" fill="#ffffff">Salaries</text>
<polygon fill="#f5d1e7" stroke="transparent" points="22.9073,-21 22.9073,-41 75.9073,-41 75.9073,-21 22.9073,-21"/>
<text text-anchor="start" x="24.9073" y="-26.4" font-family="Times,serif" font-size="14.00" fill="#444444">teamID</text>
<polygon fill="#f5d1e7" stroke="transparent" points="22.9073,-1 22.9073,-21 75.9073,-21 75.9073,-1 22.9073,-1"/>
<text text-anchor="start" x="24.5335" y="-6.4" font-family="Times,serif" font-size="14.00" fill="#444444">playerID</text>
<polygon fill="none" stroke="#8a125c" stroke-opacity="0.666667" points="21.4073,0 21.4073,-62 76.4073,-62 76.4073,0 21.4073,0"/>
</g>
<!-- Salaries&#45;&gt;People -->
<g id="Salaries_1" class="edge">
<title>Salaries:playerID&#45;&gt;People:playerID</title>
<path fill="none" stroke="#555555" d="M75.9073,-11C174.446,-11 79.3211,-367.0432 130.9073,-451 141.7322,-468.6177 167.2034,-460.5062 175.6393,-471.3779"/>
<polygon fill="#555555" stroke="#555555" points="172.2791,-472.3573 178.4073,-481 179.0063,-470.4221 172.2791,-472.3573"/>
</g>
<!-- Salaries&#45;&gt;Teams -->
<g id="Salaries_2" class="edge">
<title>Salaries:teamID&#45;&gt;Teams:teamID</title>
<path fill="none" stroke="#555555" stroke-dasharray="5,2" d="M75.9073,-31C139.205,-31 73.646,-155.5898 122.3467,-169.7035"/>
<polygon fill="#555555" stroke="#555555" points="122.0419,-173.193 132.4073,-171 122.9367,-166.2504 122.0419,-173.193"/>
</g>
<!-- SeriesPost -->
<g id="SeriesPost" class="node">
<title>SeriesPost</title>
<polygon fill="#808080" stroke="transparent" points="225.9073,-341 225.9073,-361 287.9073,-361 287.9073,-341 225.9073,-341"/>
<text text-anchor="start" x="227.7446" y="-346.4" font-family="Times,serif" font-size="14.00" fill="#ffffff">SeriesPost</text>
<polygon fill="none" stroke="#555555" stroke-opacity="0.666667" points="224.9073,-340 224.9073,-362 288.9073,-362 288.9073,-340 224.9073,-340"/>
</g>
<!-- TeamsFranchises -->
<g id="TeamsFranchises" class="node">
<title>TeamsFranchises</title>
<polygon fill="#2166ac" stroke="transparent" points="261.4073,-161 261.4073,-181 362.4073,-181 362.4073,-161 261.4073,-161"/>
<text text-anchor="start" x="263.3154" y="-166.4" font-family="Times,serif" font-size="14.00" fill="#ffffff">TeamsFranchises</text>
<polygon fill="#d2e0ee" stroke="transparent" points="261.4073,-141 261.4073,-161 362.4073,-161 362.4073,-141 261.4073,-141"/>
<text text-anchor="start" x="263.4073" y="-147.4" font-family="Times,serif" text-decoration="underline" font-size="14.00" fill="#444444">franchID</text>
<polygon fill="none" stroke="#164472" stroke-opacity="0.666667" points="259.9073,-140 259.9073,-182 362.9073,-182 362.9073,-140 259.9073,-140"/>
</g>
<!-- Teams&#45;&gt;TeamsFranchises -->
<g id="Teams_1" class="edge">
<title>Teams:franchID&#45;&gt;TeamsFranchises:franchID</title>
<path fill="none" stroke="#555555" d="M223.4073,-151C236.3378,-151 241.8434,-151 251.2935,-151"/>
<polygon fill="#555555" stroke="#555555" points="251.4073,-154.5001 261.4073,-151 251.4072,-147.5001 251.4073,-154.5001"/>
</g>
</g>
</svg>

